<svg xmlns="http://www.w3.org/2000/svg" xmlns:svg="http://www.w3.org/2000/svg" xmlns:xlink="http://www.w3.org/1999/xlink" id="svg8" width="210mm" height="297mm" version="1.1" viewBox="0 0 210 297"><defs id="defs2"><linearGradient id="linearGradient5107"><stop id="stop5103" offset="0" style="stop-color:navy;stop-opacity:1"/><stop id="stop5105" offset="1" style="stop-color:#06f;stop-opacity:1"/></linearGradient><linearGradient id="linearGradient5074"><stop style="stop-color:navy;stop-opacity:1" id="stop5070" offset="0"/><stop style="stop-color:#59f;stop-opacity:1" id="stop5072" offset="1"/></linearGradient><linearGradient id="jsc_s_2" x1="50%" x2="50%" y1="97.078%" y2="0%"><stop id="stop4550" offset="0%" stop-color="#0062E0"/><stop id="stop4552" offset="100%" stop-color="#19AFFF"/></linearGradient><linearGradient id="jsc_s_2-7" x1="50%" x2="50%" y1="97.078%" y2="0%"><stop id="stop3713" offset="0%" stop-color="#0062E0"/><stop id="stop3715" offset="100%" stop-color="#19AFFF"/></linearGradient><linearGradient id="linearGradient3737" x1="17.95" x2="17.95" y1="34.851" y2="0" gradientTransform="matrix(0.29480151,0,0,0.29316373,111.125,98.184524)" gradientUnits="userSpaceOnUse" xlink:href="#jsc_s_2"/><linearGradient id="linearGradient5042" x1="17.95" x2="17.95" y1="34.851" y2="0" gradientTransform="matrix(0.29480151,0,0,0.29316373,81.003725,69.15638)" gradientUnits="userSpaceOnUse" xlink:href="#jsc_s_2"/><linearGradient id="linearGradient5076" x1="120.292" x2="120.132" y1="92.034" y2="102.113" gradientTransform="translate(-20.579754,-23.011906)" gradientUnits="userSpaceOnUse" xlink:href="#linearGradient5074"/><linearGradient id="linearGradient5088" x1="120.292" x2="125.557" y1="92.034" y2="99.868" gradientTransform="translate(4.3360935,-4.7736443)" gradientUnits="userSpaceOnUse" xlink:href="#linearGradient5107"/><linearGradient id="linearGradient5101" x1="17.95" x2="17.95" y1="34.851" y2="0" gradientTransform="matrix(0.29480151,0,0,0.29316373,81.003725,69.15638)" gradientUnits="userSpaceOnUse" xlink:href="#jsc_s_2"/></defs><metadata id="metadata5"/><g id="layer1"><g id="g5099" transform="translate(0.37417734,-2.8998744)"><path id="path3720" d="m 85.413445,79.680916 c -2.49884,-0.44097 -4.40972,-2.61643 -4.40972,-5.23287 0,-2.91042 2.38125,-5.291666 5.29167,-5.291666 2.91041,0 5.29166,2.381246 5.29166,5.291666 0,2.61644 -1.91088,4.7919 -4.40972,5.23287 l -0.29398,-0.23518 h -1.17593 z" style="fill:url(#linearGradient5101);fill-opacity:1;stroke-width:.29398149"/><path id="path3722" d="m 88.353265,75.947356 0.23518,-1.46991 h -1.41111 v -1.02893 c 0,-0.41158 0.14699,-0.73496 0.79375,-0.73496 h 0.67616 v -1.35231 c -0.38218,-0.0588 -0.79375,-0.1176 -1.17593,-0.1176 -1.20532,0 -2.05787,0.73496 -2.05787,2.05787 v 1.17593 h -1.32291 v 1.46991 h 1.32291 v 3.73356 c 0.29398,0.0588 0.58797,0.0882 0.88195,0.0882 0.29398,0 0.58796,-0.0294 0.88194,-0.0882 v -3.73356 z" class="p361ku9c" style="fill:#fff;stroke-width:.29398149"/></g><g id="g5095" transform="translate(1.403165,-2.0579754)"><path style="fill:url(#linearGradient5076);fill-opacity:1;stroke-width:.29398149" id="path5044" d="m 99.258006,79.336134 c -2.49884,-0.44097 -4.40972,-2.616426 -4.40972,-5.232865 0,-2.91042 2.38125,-5.291666 5.291674,-5.291666 2.91041,0 5.29166,2.381246 5.29166,5.291666 0,2.616439 -1.91088,4.791895 -4.40972,5.232865 l -0.29398,-0.23518 h -1.175934 z"/><g style="fill:#fff" id="g5056" data-name="Layer 2" transform="matrix(0.26458333,0,0,0.26458333,96.755696,71.300738)"><path style="fill:#fff" id="path5050" d="m 27.1,11.13 h -7 v 12.36 a 7.1,7.1 0 0 1 -5.39,6.88 6.77,6.77 0 0 1 -1.7,0.21 A 7.0900018,7.0900018 0 1 1 13,16.4 a 6.77,6.77 0 0 1 1.7,0.21 7,7 0 0 1 3.39,2 V 2.14 Z"/><path style="fill:#fff" id="path5052" d="m 27.1,11.13 h -7 v 12.36 a 7.1,7.1 0 0 1 -5.39,6.88 V 16.61 a 7,7 0 0 1 3.39,2 V 2.14 Z"/><path style="fill:#fff" id="path5054" d="M 17.08,1.42 V 17.84 A 7.08,7.08 0 0 0 4.9,22.77 c 0,0.16 0,0.31 0,0.46 h 2 c 0,-0.15 0,-0.3 0,-0.46 a 5.16,5.16 0 1 1 0.59,2.34 H 5.3 A 7.09,7.09 0 0 0 19.08,22.77 V 10.4 h 7 z m 2,4.83 2.16,2.15 h -2.16 z"/></g></g><g id="g5114"><path id="path5078" d="m 124.17385,97.574396 c -2.49884,-0.44097 -4.40972,-2.616426 -4.40972,-5.232865 0,-2.91042 2.38125,-5.291666 5.29167,-5.291666 2.91041,0 5.29166,2.381246 5.29166,5.291666 0,2.616439 -1.91088,4.791895 -4.40972,5.232865 l -0.29398,-0.23518 h -1.17593 z" style="fill:url(#linearGradient5088);fill-opacity:1;stroke-width:.29398149"/><g id="g5086" data-name="Layer 2" transform="matrix(0.26458333,0,0,0.26458333,121.67154,89.539)" style="fill:#fff"><path id="path5080" d="m 27.1,11.13 h -7 v 12.36 a 7.1,7.1 0 0 1 -5.39,6.88 6.77,6.77 0 0 1 -1.7,0.21 A 7.0900018,7.0900018 0 1 1 13,16.4 a 6.77,6.77 0 0 1 1.7,0.21 7,7 0 0 1 3.39,2 V 2.14 Z" style="fill:#fff"/><path id="path5082" d="m 27.1,11.13 h -7 v 12.36 a 7.1,7.1 0 0 1 -5.39,6.88 V 16.61 a 7,7 0 0 1 3.39,2 V 2.14 Z" style="fill:#fff"/><path id="path5084" d="M 17.08,1.42 V 17.84 A 7.08,7.08 0 0 0 4.9,22.77 c 0,0.16 0,0.31 0,0.46 h 2 c 0,-0.15 0,-0.3 0,-0.46 a 5.16,5.16 0 1 1 0.59,2.34 H 5.3 A 7.09,7.09 0 0 0 19.08,22.77 V 10.4 h 7 z m 2,4.83 2.16,2.15 h -2.16 z" style="fill:#fff"/></g></g></g></svg>