<svg xmlns="http://www.w3.org/2000/svg" xmlns:svg="http://www.w3.org/2000/svg" xmlns:xlink="http://www.w3.org/1999/xlink" id="svg8" width="164.17" height="39.988" version="1.1" viewBox="0 0 43.437 10.58"><defs id="defs2"><linearGradient id="linearGradient5107"><stop id="stop5103" offset="0" style="stop-color:navy;stop-opacity:1"/><stop id="stop5105" offset="1" style="stop-color:#06f;stop-opacity:1"/></linearGradient><linearGradient id="jsc_s_2" x1=".5" x2=".5" y1=".971" y2="0"><stop id="stop4550" offset="0%" stop-color="#0062E0"/><stop id="stop4552" offset="100%" stop-color="#19AFFF"/></linearGradient><linearGradient id="jsc_s_2-7" x1=".5" x2=".5" y1=".971" y2="0"><stop id="stop3713" offset="0%" stop-color="#0062E0"/><stop id="stop3715" offset="100%" stop-color="#19AFFF"/></linearGradient><linearGradient id="linearGradient3737" x1="17.95" x2="17.95" y1="34.851" y2="0" gradientTransform="matrix(0.29480151,0,0,0.29316373,111.125,98.184524)" gradientUnits="userSpaceOnUse" xlink:href="#jsc_s_2"/><linearGradient id="linearGradient5042" x1="17.95" x2="17.95" y1="34.851" y2="0" gradientTransform="matrix(0.29480151,0,0,0.29316373,81.003725,69.15638)" gradientUnits="userSpaceOnUse" xlink:href="#jsc_s_2"/><linearGradient id="linearGradient5088" x1="120.292" x2="125.557" y1="92.034" y2="99.868" gradientTransform="translate(8.1714112,-3.2769349)" gradientUnits="userSpaceOnUse" xlink:href="#linearGradient5107"/></defs><metadata id="metadata5"/><g id="layer1" transform="translate(-108.91299,-79.940495)"><g id="g5146" transform="translate(-14.68646,-8.6060788)"><path id="path5078" d="m 128.00917,99.071105 c -2.49884,-0.44097 -4.40972,-2.616426 -4.40972,-5.232865 0,-2.91042 2.38125,-5.291666 5.29167,-5.291666 2.91041,0 5.29166,2.381246 5.29166,5.291666 0,2.616439 -1.91088,4.791895 -4.40972,5.232865 l -0.29398,-0.23518 h -1.17593 z" style="fill:url(#linearGradient5088);fill-opacity:1;stroke-width:.29398149"/><g id="g5086" data-name="Layer 2" transform="matrix(0.26458333,0,0,0.26458333,125.50686,91.035709)" style="fill:#fff"><path id="path5080" d="m 27.1,11.13 h -7 v 12.36 a 7.1,7.1 0 0 1 -5.39,6.88 6.77,6.77 0 0 1 -1.7,0.21 A 7.0900018,7.0900018 0 1 1 13,16.4 a 6.77,6.77 0 0 1 1.7,0.21 7,7 0 0 1 3.39,2 V 2.14 Z" style="fill:#fff"/><path id="path5082" d="m 27.1,11.13 h -7 v 12.36 a 7.1,7.1 0 0 1 -5.39,6.88 V 16.61 a 7,7 0 0 1 3.39,2 V 2.14 Z" style="fill:#fff"/><path id="path5084" d="M 17.08,1.42 V 17.84 A 7.08,7.08 0 0 0 4.9,22.77 c 0,0.16 0,0.31 0,0.46 h 2 c 0,-0.15 0,-0.3 0,-0.46 a 5.16,5.16 0 1 1 0.59,2.34 H 5.3 A 7.09,7.09 0 0 0 19.08,22.77 V 10.4 h 7 z m 2,4.83 2.16,2.15 h -2.16 z" style="fill:#fff"/></g></g><text style="font-style:normal;font-variant:normal;font-weight:700;font-stretch:normal;font-size:5.97569323px;line-height:1.25;font-family:sans-serif;-inkscape-font-specification:'sans-serif Bold';letter-spacing:0;word-spacing:0;fill:#fff;fill-opacity:1;stroke:none;stroke-width:.14939231" id="text5150" x="121.497" y="87.334" xml:space="preserve"><tspan id="tspan5148" x="121.497" y="87.334" style="font-style:normal;font-variant:normal;font-weight:700;font-stretch:normal;font-family:sans-serif;-inkscape-font-specification:'sans-serif Bold';fill:#fff;stroke-width:.14939231">REMUSIC</tspan></text></g></svg>